<svg aria-hidden="true" width="32" height="32" style="position: absolute; width: 0; height: 0; overflow: hidden;" version="1.1"
  xmlns="http://www.w3.org/2000/svg" xmlns:xlink="http://www.w3.org/1999/xlink">
  <defs>
    <style>
      g {
        display: none;
      }
      g:target {
        display: inline;
      }
    </style>
    <symbol id="icon-clock" viewBox="0 0 32 32">
      <path
        d="M31.279 16c0.012-8.438-6.818-15.289-15.257-15.302s-15.289 6.818-15.302 15.257c-0.007 4.974 2.406 9.639 6.47 12.507l-2.097 2.097 1.44 1.44 2.445-2.445c4.634 2.422 10.19 2.284 14.698-0.366l2.809 2.809 1.44-1.44-2.532-2.533c3.711-2.887 5.883-7.323 5.886-12.025zM16 29.242c-7.313 0-13.242-5.929-13.242-13.242s5.929-13.242 13.242-13.242 13.242 5.929 13.242 13.242c-0.008 7.31-5.932 13.234-13.242 13.242z">
      </path>
      <path d="M4.075 0l1.441 1.441-4.075 4.075-1.441-1.441 4.075-4.075z"></path>
      <path d="M27.925 0.001l4.075 4.075-1.441 1.441-4.075-4.075 1.441-1.441z"></path>
      <path d="M22.315 12.656l-1.441-1.441 1.441-1.441 1.441 1.441-1.441 1.441z"></path>
      <path d="M19.436 15.536l-1.441-1.441 1.441-1.441 1.441 1.441-1.441 1.441z"></path>
      <path d="M13.887 18.201l-4.381-3.505-1.273 1.591 5.805 4.644 3.956-3.955-1.441-1.441z"></path>
    </symbol>
    <symbol id="icon-calendar" viewBox="0 0 32 32">
      <path
        d="M28 3v-3h-2v3h-20v-3h-2v3h-4v29h25.414l6.586-6.586v-22.414h-4zM26 28.586v-2.586h2.586l-2.586 2.586zM30 8h-18v2h18v14h-6v6h-22v-20h4v-2h-4v-3h28v3z">
      </path>
      <path d="M8.375 20.781l5.699 4.559 9.633-9.633-1.414-1.414-8.367 8.367-4.301-3.441z"></path>
      <path d="M8 8h2v2h-2v-2z"></path>
    </symbol>
    <symbol id="icon-people" viewBox="0 0 32 32">
      <path
        d="M20 20.263v-1.728l3-2v-3.535h4v-2h-2c-0.012-3.499-2.049-6.674-5.224-8.145l0.357-2.855h-8.266l0.357 2.855c-3.175 1.471-5.212 4.646-5.224 8.145h-2v2h4v3.535l3 2v1.728l-10 3.091v8.646h2v-7.172l6-1.854v3.592l6 3.6 6-3.6v-3.592l6 1.854v7.172h2v-8.646l-10-3.091zM12.487 4.956l0.521 4.168 1.984-0.248-0.859-6.876h3.734l-0.859 6.876 1.984 0.248 0.521-4.168c2.152 1.254 3.479 3.553 3.487 6.044h-14c0.008-2.491 1.335-4.79 3.487-6.044zM20 25.434l-4 2.4-4-2.4v-3.079l2-0.618v-4.272l-3-2v-2.465h10v2.465l-3 2v4.272l2 0.618v3.079z">
      </path>
      <path d="M7 28h2v4h-2v-4z"></path>
      <path d="M23 28h2v4h-2v-4z"></path>
    </symbol>
    <symbol id="icon-vk" viewBox="0 0 32 32">
      <path
        d="M31.837 25.444l-1.1-2.587c-0.962-2.294-2.231-4.281-3.781-5.913 2.038-1.631 4.081-4.469 4.081-9.294v-1.875c0-1.1-0.894-1.994-1.994-1.994h-3.75c-1.1 0-1.994 0.894-1.994 1.994v1.875c0 1.394-0.256 2.3-0.837 2.938-0.406 0.444-1.006 0.8-1.794 1.056v-6.925c0-0.519-0.425-0.944-0.944-0.944h-7.019c-1.406 0-2.55 1.144-2.55 2.55 0 1.188 0.806 2.206 1.956 2.481l0.306 0.075c0.3 0.069 0.506 0.331 0.506 0.637v9.706c-0.838-0.575-1.625-1.337-2.313-2.256-1.856-2.469-2.875-5.781-2.875-9.325v-1.875c0-1.1-0.894-1.994-1.994-1.994h-3.75c-1.1 0-1.994 0.9-1.994 2v1.875c0 5.313 1.631 10.35 4.594 14.181 3.194 4.125 7.525 6.394 12.2 6.394h1.875c1.1 0 1.994-0.894 1.994-1.994v-4.6c1.212 1.044 2.194 2.456 2.931 4.219l0.481 1.15c0.313 0.744 1.031 1.225 1.844 1.225h4.081c0.675 0 1.294-0.337 1.663-0.894 0.375-0.563 0.444-1.269 0.175-1.887zM30.094 26.288c-0.031 0.050-0.075 0.050-0.087 0.050h-4.081c-0.044 0-0.081-0.025-0.1-0.063l-0.481-1.15c-1.050-2.506-2.556-4.425-4.475-5.706-0.219-0.144-0.444-0.281-0.688-0.419-0.144-0.081-0.3-0.119-0.456-0.119-0.169 0-0.331 0.044-0.481 0.131-0.288 0.169-0.469 0.481-0.469 0.813v6.406c0 0.056-0.050 0.106-0.106 0.106h-1.875c-4.081 0-7.881-2.012-10.706-5.663-2.706-3.5-4.2-8.125-4.2-13.025v-1.875c0-0.056 0.050-0.106 0.106-0.106h3.75c0.056 0 0.106 0.050 0.106 0.106v1.875c0 3.95 1.156 7.662 3.256 10.456 1.238 1.65 2.756 2.887 4.4 3.587 0.294 0.125 0.625 0.094 0.894-0.081 0.262-0.175 0.425-0.469 0.425-0.788v-11.306c0-1.188-0.806-2.206-1.956-2.481l-0.306-0.075c-0.3-0.069-0.506-0.331-0.506-0.638 0-0.362 0.294-0.656 0.656-0.656h6.075v7.175c0 0.281 0.125 0.544 0.337 0.725s0.5 0.256 0.775 0.206c1.769-0.319 3.1-0.969 3.969-1.919 0.919-1.012 1.331-2.306 1.331-4.206v-1.875c0-0.056 0.050-0.106 0.106-0.106h3.75c0.056 0 0.106 0.050 0.106 0.106v1.875c0 4.731-2.262 7.175-4.156 8.387-0.25 0.156-0.406 0.419-0.431 0.712s0.087 0.581 0.3 0.775c1.725 1.587 3.119 3.631 4.137 6.069v0.006l1.1 2.594c-0.006 0.006 0.012 0.044-0.019 0.094z">
      </path>
    </symbol>
    <symbol id="icon-building" viewBox="0 0 32 32">
      <path
        d="M22 12v-12h-22v32h32v-20h-10zM12 30h-10v-28h18v10h-8v18zM23 30h-2v-2h2v2zM30 30h-5v-4h-6v4h-5v-16h16v16z">
      </path>
      <path d="M25 21h2v2h-2v-2z"></path>
      <path d="M21 21h2v2h-2v-2z"></path>
      <path d="M25 17h2v2h-2v-2z"></path>
      <path d="M21 17h2v2h-2v-2z"></path>
      <path d="M17 21h2v2h-2v-2z"></path>
      <path d="M17 17h2v2h-2v-2z"></path>
      <path d="M4 18h6v-6h-6v6zM6 14h2v2h-2v-2z"></path>
      <path d="M4 26h6v-6h-6v6zM6 22h2v2h-2v-2z"></path>
      <path d="M4 10h6v-6h-6v6zM6 6h2v2h-2v-2z"></path>
      <path d="M12 10h6v-6h-6v6zM14 6h2v2h-2v-2z"></path>
    </symbol>
    <symbol id="icon-gestures" viewBox="0 0 32 32">
      <path
        d="M30.118 20.722l-2.246-2.249 1.265-1.265c1.84-1.831 2.871-4.322 2.863-6.918 0-0.151 0-0.3-0.010-0.453l-2 0.094c0.006 0.119 0.008 0.239 0.008 0.359 0.005 2.064-0.816 4.044-2.279 5.5l-1.264 1.264-9.2-9.2-5.312 1.89c-0.84 0.303-1.766-0.132-2.068-0.972-0.279-0.773 0.067-1.633 0.804-1.997l4.39-2.195c0.031 0.028 0.064 0.052 0.093 0.081l0.838 0.833 0.713-0.718c0.087-0.086 0.168-0.165 0.287-0.275 0.826-0.744 1.801-1.304 2.86-1.643l0.154-0.041c1.695-0.496 3.507-0.406 5.144 0.256l0.751-1.85c-2.009-0.813-4.231-0.94-6.32-0.362l-0.162 0.040c-1.253 0.375-2.418 0.997-3.427 1.828-4.172-3.433-10.337-2.835-13.771 1.337-1.443 1.753-2.231 3.954-2.229 6.224-0.006 2.279 0.789 4.487 2.248 6.237l-0.867 0.868c-1.171 1.171-1.171 3.070 0 4.242 0.524 0.523 1.225 0.831 1.964 0.864 0.033 0.74 0.34 1.441 0.862 1.966 0.525 0.521 1.225 0.828 1.964 0.861 0.065 1.535 1.294 2.764 2.829 2.828 0.033 0.74 0.34 1.441 0.862 1.966 1.162 1.164 3.046 1.173 4.219 0.019l0.482 0.482c0.561 0.564 1.324 0.881 2.12 0.878h0.006c0.798-0 1.563-0.319 2.125-0.886 0.237-0.241 0.431-0.521 0.573-0.827l0.835 0.835c0.56 0.564 1.322 0.88 2.117 0.878h0.007c0.815-0.004 1.594-0.336 2.161-0.921 0.254-0.257 0.457-0.56 0.6-0.892 0.447 0.259 0.953 0.396 1.469 0.4 0.818-0.003 1.601-0.336 2.17-0.924 0.945-0.952 1.128-2.422 0.445-3.576 1.518-0.657 2.215-2.419 1.559-3.937-0.15-0.347-0.364-0.662-0.632-0.929zM2.793 20.223c-0.39-0.39-0.39-1.023 0-1.414l1.58-1.58c0.384-0.397 1.017-0.408 1.414-0.025s0.408 1.017 0.025 1.414c-0.008 0.008-0.016 0.017-0.025 0.025l-1.58 1.58c-0.395 0.379-1.019 0.379-1.414 0zM5.621 23.052c-0.391-0.39-0.391-1.023-0.001-1.414 0-0 0-0 0.001-0.001l3.343-3.343c0.39-0.391 1.024-0.391 1.415-0s0.391 1.024 0.001 1.415l-3.343 3.343c-0.392 0.388-1.023 0.389-1.415 0.001zM8.45 25.88c-0.39-0.39-0.39-1.023 0-1.414l1.581-1.581c0.39-0.39 1.023-0.39 1.413 0s0.39 1.023 0 1.414l-1.58 1.58c-0.39 0.391-1.023 0.391-1.414 0.001zM14.298 27.103c-0.008 0.008-0.016 0.017-0.025 0.025h-0.001l-1.58 1.58c-0.395 0.379-1.018 0.379-1.413 0-0.39-0.39-0.39-1.023 0-1.414l1.58-1.58c0.384-0.397 1.017-0.408 1.414-0.025s0.408 1.017 0.025 1.414zM28.707 23.551h0.001c-0.383 0.378-0.996 0.386-1.388 0.018l-7.806-7.8-1.413 1.416 0.423 0.422 7.354 7.354c0.015 0.014 0.032 0.024 0.047 0.038l1.41 1.408c0.371 0.38 0.363 0.988-0.017 1.359-0.006 0.006-0.012 0.011-0.018 0.017-0.191 0.192-0.45 0.3-0.72 0.3-0.263-0.002-0.514-0.107-0.7-0.293l-1.347-1.349c-0.008-0.008-0.013-0.018-0.021-0.026l-7.826-7.814-1.414 1.414c0 0 4.689 4.689 7.83 7.833 0.361 0.384 0.343 0.988-0.041 1.349-0.001 0.001-0.002 0.002-0.004 0.003-0.195 0.184-0.449 0.291-0.717 0.3-0.263-0-0.515-0.105-0.7-0.292l-2.83-2.825v-0.006l-0.1-0.1-1.411 1.418 0.107 0.107c0.385 0.387 0.385 1.013 0 1.4-0.391 0.393-1.026 0.397-1.421 0.008l-0.479-0.48 0.187-0.187c1.171-1.162 1.179-3.053 0.018-4.224-0.528-0.532-1.236-0.847-1.985-0.881-0.041-1.113-0.712-2.105-1.729-2.558 1.050-1.269 0.873-3.149-0.396-4.2-1.104-0.914-2.701-0.914-3.804 0-0.669-1.49-2.42-2.155-3.909-1.485-0.036 0.016-0.072 0.033-0.108 0.051-2.74-3.313-2.276-8.219 1.037-10.959 2.353-1.946 5.627-2.337 8.372-0.999l-3.4 1.7c-1.787 0.893-2.512 3.065-1.619 4.852 0.817 1.635 2.726 2.404 4.449 1.791l4.121-1.466 11.967 11.972c0.39 0.39 0.39 1.023 0 1.414z">
      </path>
      <path
        d="M29.714 8.184l1.927-0.537c-0.201-0.717-0.483-1.408-0.841-2.061l-1.755 0.959c0.285 0.519 0.51 1.069 0.669 1.639z">
      </path>
      <path
        d="M28.026 5.101l1.5-1.33c-0.123-0.138-0.25-0.273-0.386-0.409-0.395-0.392-0.823-0.751-1.279-1.071l-1.154 1.633c0.361 0.256 0.701 0.541 1.015 0.853 0.105 0.106 0.206 0.213 0.304 0.324z">
      </path>
    </symbol>
    <symbol id="icon-instagram" viewBox="0 0 32 32">
      <path
        d="M23.225 0h-14.45c-4.838 0-8.775 3.938-8.775 8.775v14.456c0 4.831 3.938 8.769 8.775 8.769h14.456c4.831 0 8.769-3.938 8.769-8.775v-14.45c0-4.838-3.938-8.775-8.775-8.775zM30.113 23.225c0 3.794-3.087 6.881-6.881 6.881h-14.456c-3.794 0-6.881-3.087-6.881-6.881v-14.45c0-3.794 3.088-6.881 6.881-6.881h14.456c3.794 0 6.881 3.088 6.881 6.881v14.45z">
      </path>
      <path
        d="M16 7.225c-4.838 0-8.775 3.938-8.775 8.775s3.938 8.775 8.775 8.775 8.775-3.938 8.775-8.775-3.938-8.775-8.775-8.775zM16 22.887c-3.8 0-6.887-3.087-6.887-6.887s3.088-6.887 6.887-6.887 6.887 3.088 6.887 6.887-3.087 6.887-6.887 6.887z">
      </path>
      <path
        d="M25.3 4.031c-1.469 0-2.669 1.194-2.669 2.669s1.194 2.669 2.669 2.669 2.669-1.194 2.669-2.669-1.194-2.669-2.669-2.669zM25.3 7.475c-0.431 0-0.775-0.35-0.775-0.775s0.35-0.775 0.775-0.775c0.431 0 0.775 0.35 0.775 0.775s-0.344 0.775-0.775 0.775z">
      </path>
    </symbol>
    <symbol id="icon-schedule" viewBox="0 0 32 32">
      <path
        d="M28 3v-3h-2v3h-20v-3h-2v3h-4v29h25.414l6.586-6.586v-22.414h-4zM26 28.586v-2.586h2.586l-2.586 2.586zM30 8h-18v2h18v14h-6v6h-22v-20h4v-2h-4v-3h28v3z">
      </path>
      <path d="M8 8h2v2h-2v-2z"></path>
      <path d="M5 19h6v-6h-6v6zM7 15h2v2h-2v-2z"></path>
      <path d="M19 13h-6v6h6v-6zM17 17h-2v-2h2v2z"></path>
      <path d="M27 13h-6v6h6v-6zM25 17h-2v-2h2v2z"></path>
      <path d="M5 27h6v-6h-6v6zM7 23h2v2h-2v-2z"></path>
      <path d="M19 21h-6v6h6v-6zM17 25h-2v-2h2v2z"></path>
    </symbol>
    <symbol id="icon-facebook" viewBox="0 0 32 32">
      <path
        d="M28.1 0h-24.2c-2.15 0-3.9 1.75-3.9 3.9v24.206c0 2.144 1.75 3.894 3.9 3.894h12.406c0.519 0 0.944-0.425 0.944-0.944v-11.456c0-0.519-0.425-0.944-0.944-0.944h-3.394v-2.688h3.394c0.519 0 0.944-0.425 0.944-0.944v-3.825c0-2.069 1.681-3.756 3.756-3.756h3.275v2.688h-3.281c-0.587 0-1.063 0.475-1.063 1.063v3.825c0 0.519 0.425 0.944 0.944 0.944h3.394v2.688h-3.394c-0.519 0-0.944 0.425-0.944 0.944v11.456c0 0.519 0.425 0.944 0.944 0.944h7.219c2.15 0 3.9-1.75 3.9-3.9v-24.194c0-2.15-1.75-3.9-3.9-3.9zM30.113 28.1c0 1.106-0.9 2.006-2.006 2.006h-6.281v-9.563h3.394c0.519 0 0.944-0.425 0.944-0.944v-4.581c0-0.519-0.425-0.944-0.944-0.944h-3.394v-2.056h3.394c0.519 0 0.944-0.425 0.944-0.944v-4.581c0-0.519-0.425-0.944-0.944-0.944h-4.219c-3.113 0-5.644 2.531-5.644 5.644v2.881h-3.394c-0.519 0-0.944 0.425-0.944 0.944v4.581c0 0.519 0.425 0.944 0.944 0.944h3.394v9.569h-11.456c-1.106 0-2.006-0.9-2.006-2.006v-24.206c0-1.106 0.9-2.006 2.006-2.006h24.206c1.106 0 2.006 0.9 2.006 2.006v24.2z">
      </path>
    </symbol>
    <symbol id="icon-sketch" viewBox="0 0 32 32">
      <path
        d="M8 4v-4h-4c-2.209 0-4 1.791-4 4v24c0 2.209 1.791 4 4 4h28v-28h-24zM2 4c0-1.105 0.895-2 2-2h2v22h-2c-0.702-0.001-1.393 0.184-2 0.537v-20.537zM30 30h-26c-1.105 0-2-0.895-2-2s0.895-2 2-2h4v-20h22v24z">
      </path>
      <path d="M12 11h2v-2h-4v4h2z"></path>
      <path d="M26 13h2v-4h-4v2h2z"></path>
      <path d="M16 9h2v2h-2v-2z"></path>
      <path d="M20 9h2v2h-2v-2z"></path>
      <path d="M14 25h-2v-2h-2v4h4z"></path>
      <path d="M28 23h-2v2h-2v2h4z"></path>
      <path d="M16 25h2v2h-2v-2z"></path>
      <path d="M20 25h2v2h-2v-2z"></path>
      <path d="M10 19h2v2h-2v-2z"></path>
      <path d="M10 15h2v2h-2v-2z"></path>
      <path d="M26 19h2v2h-2v-2z"></path>
      <path d="M26 15h2v2h-2v-2z"></path>
    </symbol>
    <symbol id="icon-wallet" viewBox="0 0 32 32">
      <path d="M16 29.707h2v2h-2v-2z"></path>
      <path d="M20 29.707h2v2h-2v-2z"></path>
      <path
        d="M30 16.707v-7h-2v-6h-9.346l-3.414-3.414-3.414 3.414h-7.826c-2.209 0-4 1.791-4 4v20c0 2.209 1.791 4 4 4h10v-2h-10c-1.105 0-2-0.895-2-2v-16.555c0.605 0.36 1.296 0.551 2 0.555h24v5h-2c-2.209 0-4 1.791-4 4s1.791 4 4 4h2v5h-4v2h6v-7h2v-8h-2zM15.24 3.121l2.022 2.022c-1.248 0.731-2.794 0.731-4.042 0l2.020-2.022zM4 9.707c-1.105 0-2-0.895-2-2s0.895-2 2-2h5.826l-4 4h-1.826zM8.654 9.707l3.123-3.123c2.068 1.492 4.86 1.492 6.928 0l3.121 3.123h-13.172zM26 9.707h-1.346l-4-4h5.346v4zM30 22.707h-4c-1.105 0-2-0.895-2-2s0.895-2 2-2h4v4z">
      </path>
      <path d="M4 25.707h6v2h-6v-2z"></path>
      <path d="M4 21.707h10v2h-10v-2z"></path>
    </symbol>
    <symbol id="icon-list" viewBox="0 0 32 32">
      <path
        d="M22 17.307v-5.307c0-1.657-1.343-3-3-3s-3 1.343-3 3v6c-2.209 0-4 1.791-4 4v4.333l3 4v1.667h2v-2.333l-3-4v-3.667c0-1.105 0.895-2 2-2v4h2v-12c0-0.552 0.448-1 1-1s1 0.448 1 1v6.693l8 3v4.071l-2 4v2.236h2v-1.764l2-4v-5.929l-8-3z">
      </path>
      <path d="M4 8h6v-6h14v6h2v-8h-17.414l-6.586 6.586v25.414h10v-2h-8v-22zM8 3.414v2.586h-2.586l2.586-2.586z"></path>
      <path d="M6 10h8v2h-8v-2z"></path>
      <path d="M6 14h8v2h-8v-2z"></path>
      <path d="M6 18h4v2h-4v-2z"></path>
      <path d="M6 22h4v2h-4v-2z"></path>
      <path d="M6 26h4v2h-4v-2z"></path>
      <path d="M24 14h2v2h-2v-2z"></path>
      <path d="M24 10h2v2h-2v-2z"></path>
    </symbol>
    <symbol id="icon-twitter" viewBox="0 0 32 32">
      <path
        d="M31.856 6.844c-0.188-0.306-0.538-0.481-0.894-0.45l-1.594 0.138 1.525-3.075c0.181-0.369 0.113-0.806-0.181-1.1-0.288-0.288-0.731-0.363-1.094-0.181l-4.038 1.975c-2.494-1.319-5.613-0.925-7.756 1.025-1.788 1.631-2.731 4.137-2.556 6.637-4.675-0.469-8.637-3.144-10.975-7.469-0.156-0.287-0.444-0.475-0.775-0.5-0.325-0.025-0.637 0.119-0.831 0.381-1.45 1.963-1.556 4.65-0.413 6.862-0.313-0.081-0.65-0.188-1.019-0.313-0.319-0.106-0.669-0.037-0.919 0.181s-0.375 0.55-0.325 0.881c0.45 2.731 2.044 4.831 4.556 6.069-0.325 0.113-0.663 0.206-1 0.275s-0.612 0.319-0.712 0.644c-0.106 0.331-0.025 0.688 0.212 0.938 1.813 1.938 4.425 2.887 6.287 3.344-2.112 1.656-4.394 1.931-7.706 1.819-0.381-0.012-0.738 0.206-0.9 0.55-0.162 0.35-0.1 0.756 0.156 1.044 1.381 1.525 6.419 3.238 11.706 3.369 0.206 0.006 0.425 0.006 0.644 0.006 3.719 0 8.625-0.794 12.15-4.319 2.669-2.669 4.337-5.738 4.962-9.131 0.506-2.738 0.188-4.931 0.031-5.981-0.012-0.075-0.025-0.162-0.031-0.231l1.494-2.406c0.188-0.281 0.188-0.669-0.006-0.981zM28.506 10.762c0.281 1.95 1.144 7.887-4.45 13.488-3.256 3.25-7.994 3.837-11.4 3.75-2.906-0.069-5.5-0.625-7.381-1.256 0.763-0.094 1.444-0.238 2.088-0.438 1.775-0.55 3.269-1.544 4.713-3.119 0.238-0.262 0.313-0.637 0.194-0.975-0.125-0.337-0.419-0.575-0.775-0.619-0.912-0.119-3.644-0.575-5.8-2.063 0.619-0.256 1.219-0.569 1.788-0.95 0.313-0.206 0.475-0.581 0.412-0.95s-0.338-0.669-0.7-0.769c-1.756-0.462-3.881-1.494-4.862-3.8 0.625 0.113 1.306 0.137 2.031-0.025 0.338-0.075 0.606-0.325 0.706-0.656s0.013-0.688-0.225-0.938c-1.219-1.262-1.675-3.088-1.288-4.644 1.281 1.875 2.906 3.45 4.769 4.619 2.381 1.494 5.156 2.319 8.038 2.381 0.294 0.006 0.575-0.119 0.762-0.35 0.188-0.225 0.256-0.525 0.194-0.813-0.494-2.225 0.212-4.594 1.8-6.044 1.644-1.5 4.081-1.725 5.919-0.55 0.281 0.181 0.637 0.2 0.931 0.050l1.969-0.963-1.031 2.081c-0.156 0.306-0.125 0.675 0.069 0.963s0.525 0.444 0.869 0.412l1.387-0.119-0.637 1.031c-0.219 0.338-0.175 0.65-0.087 1.262z">
      </path>
    </symbol>
    <symbol id="icon-chevron" viewBox="0 0 32 32">
      <path d="M9.88 11.44l6.12 6.12 6.12-6.12 1.88 1.893-8 8-8-8 1.88-1.893z"></path>
    </symbol>
    <symbol id="icon-clock2" viewBox="0 0 32 32">
      <path
        d="M16 26.667c5.891 0 10.667-4.776 10.667-10.667v0c0-5.891-4.776-10.667-10.667-10.667v0c-5.891 0-10.667 4.776-10.667 10.667v0c0 5.891 4.776 10.667 10.667 10.667v0zM16 2.667c7.364 0 13.333 5.97 13.333 13.333v0c0 7.364-5.97 13.333-13.333 13.333v0c-7.373 0-13.333-6-13.333-13.333 0-7.364 5.97-13.333 13.333-13.333v0zM16.667 9.333v7l6 3.56-1 1.64-7-4.2v-8h2z">
      </path>
    </symbol>
    <symbol id="icon-email-outline" viewBox="0 0 32 32">
      <path
        d="M29.333 8c0-1.467-1.2-2.667-2.667-2.667h-21.333c-1.467 0-2.667 1.2-2.667 2.667v16c0 1.467 1.2 2.667 2.667 2.667h21.333c1.467 0 2.667-1.2 2.667-2.667v-16zM26.667 8l-10.667 6.667-10.667-6.667h21.333zM26.667 24h-21.333v-13.333l10.667 6.667 10.667-6.667v13.333z">
      </path>
    </symbol>
    <symbol id="icon-arrow" viewBox="0 0 32 32">
      <path
        d="M31.333 14.667h-27.057l6.862-6.862c0.125-0.125 0.195-0.294 0.195-0.471v-1.333c0-0.27-0.162-0.513-0.411-0.616-0.083-0.035-0.169-0.051-0.255-0.051-0.173 0-0.344 0.068-0.471 0.195l-10 10c-0.26 0.26-0.26 0.682 0 0.943l10 10c0.191 0.19 0.476 0.248 0.727 0.145 0.249-0.103 0.411-0.346 0.411-0.616v-1.333c0-0.177-0.070-0.346-0.195-0.471l-6.862-6.862h27.057c0.369 0 0.667-0.298 0.667-0.667v-1.333c-0-0.368-0.298-0.667-0.667-0.667z">
      </path>
    </symbol>
    <symbol id="icon-logo_1" viewBox="11.7 4.6 5.2 4.6">
      <path fill="#20242d" style="fill: var(--color1, #20242d)"
        d="M13.619 4.87c-1.091 0.294-1.891 1.293-1.891 2.477 0 0.458 0.122 0.883 0.33 1.254l0.384-0.384c-0.125-0.266-0.182-0.56-0.182-0.874 0-0.896 0.582-1.658 1.389-1.936v0.496c-0.55 0.253-0.928 0.803-0.928 1.44 0 0.182 0.026 0.358 0.083 0.522l0.397-0.4c-0.003-0.038-0.006-0.080-0.006-0.122 0-0.358 0.163-0.678 0.429-0.88 0.128-0.096 0.285-0.166 0.429-0.202v-1.472c-0.147 0.013-0.291 0.042-0.432 0.080zM15.011 4.88c-0.147-0.042-0.304-0.070-0.448-0.086v1.472c0.147 0.038 0.32 0.118 0.448 0.227 0.246 0.202 0.397 0.509 0.397 0.854 0 0.038-0.003 0.074-0.006 0.109l0.403 0.403c0.054-0.16 0.083-0.333 0.083-0.512 0-0.624-0.371-1.165-0.883-1.424v-0.499c0.768 0.288 1.344 1.040 1.344 1.923 0 0.31-0.067 0.602-0.192 0.864l0.384 0.384c0.205-0.371 0.33-0.797 0.33-1.248-0.006-1.174-0.787-2.163-1.859-2.467z">
      </path>
      <path fill="#ff7129" style="fill: var(--color2, #ff7129)"
        d="M16.307 8.938c-0.086 0.109-0.179 0.208-0.282 0.301l-1.725-1.725-1.728 1.728c-0.102-0.093-0.198-0.195-0.282-0.301l2.010-2.010 2.006 2.006z">
      </path>
    </symbol>
    <symbol id="icon-logo_2" viewBox="11.7 4.6 5.2 4.6">
      <path fill="#fff" style="fill: var(--color3, #fff)"
        d="M13.619 4.87c-1.091 0.294-1.891 1.293-1.891 2.477 0 0.458 0.122 0.883 0.33 1.254l0.384-0.384c-0.125-0.266-0.182-0.56-0.182-0.874 0-0.896 0.582-1.658 1.389-1.936v0.496c-0.55 0.253-0.928 0.803-0.928 1.44 0 0.182 0.026 0.358 0.083 0.522l0.397-0.4c-0.003-0.038-0.006-0.080-0.006-0.122 0-0.358 0.163-0.678 0.429-0.88 0.128-0.096 0.285-0.166 0.429-0.202v-1.472c-0.147 0.013-0.291 0.042-0.432 0.080zM15.011 4.88c-0.147-0.042-0.304-0.070-0.448-0.086v1.472c0.147 0.038 0.32 0.118 0.448 0.227 0.246 0.202 0.397 0.509 0.397 0.854 0 0.038-0.003 0.074-0.006 0.109l0.403 0.403c0.054-0.16 0.083-0.333 0.083-0.512 0-0.624-0.371-1.165-0.883-1.424v-0.499c0.768 0.288 1.344 1.040 1.344 1.923 0 0.31-0.067 0.602-0.192 0.864l0.384 0.384c0.205-0.371 0.33-0.797 0.33-1.248-0.006-1.174-0.787-2.163-1.859-2.467z">
      </path>
      <path fill="#ff7129" style="fill: var(--color2, #ff7129)"
        d="M16.307 8.938c-0.086 0.109-0.179 0.208-0.282 0.301l-1.725-1.725-1.728 1.728c-0.102-0.093-0.198-0.195-0.282-0.301l2.010-2.010 2.006 2.006z">
      </path>
    </symbol>
    <symbol id="icon-map" viewBox="0 0 32 32">
      <path
        d="M16 8.667c1.841 0 3.333 1.492 3.333 3.333v0c0 1.841-1.492 3.333-3.333 3.333v0c-1.841 0-3.333-1.492-3.333-3.333v0c0-1.841 1.492-3.333 3.333-3.333v0zM16 2.667c5.155 0 9.333 4.179 9.333 9.333v0c0 7-9.333 17.333-9.333 17.333s-9.333-10.333-9.333-17.333c0-5.155 4.179-9.333 9.333-9.333v0zM16 5.333c-3.682 0-6.667 2.985-6.667 6.667v0c0 1.333 0 4 6.667 12.947 6.667-8.947 6.667-11.613 6.667-12.947 0-3.682-2.985-6.667-6.667-6.667v0z">
      </path>
    </symbol>
    <symbol id="icon-option" viewBox="0 0 32 32">
      <path
        d="M28.406 19.722l-13.016-13.016c-1.963-1.948-5.131-1.942-7.086 0.013s-1.961 5.124-0.013 7.086l10.649 10.652c0.436 0.436 1.142 0.436 1.578 0s0.436-1.142 0-1.578l-10.649-10.652c-1.089-1.089-1.089-2.855 0-3.944s2.855-1.089 3.944 0l13.019 13.016c1.961 1.962 1.96 5.141-0.001 7.102s-5.141 1.96-7.102-0.001l-13.805-13.805c-2.758-2.844-2.723-7.375 0.078-10.177s7.333-2.836 10.177-0.078l11.833 11.833c0.282 0.282 0.693 0.392 1.078 0.289s0.686-0.404 0.789-0.789-0.007-0.796-0.289-1.078l-11.833-11.833c-3.706-3.689-9.698-3.682-13.395 0.015s-3.704 9.689-0.015 13.395l13.807 13.805c2.848 2.735 7.361 2.69 10.153-0.103s2.836-7.306 0.1-10.153z">
      </path>
    </symbol>
    <symbol id="icon-phone1" viewBox="0 0 32 32">
      <path d="M9.048 24.516l1.414-1.414 1.414 1.414-1.414 1.414-1.414-1.414z"></path>
      <path d="M6.219 21.688l1.414-1.414 1.414 1.414-1.414 1.414-1.414-1.414z"></path>
      <path
        d="M18.541 21.613l-8.154-8.154 4.784-4.783-8.538-8.538-6.633 5.686v9.644l4.806 4.805 1.414-1.414-4.22-4.219v-7.896l4.529-3.882 5.814 5.814-4.784 4.783 10.982 10.982 4.783-4.784 5.814 5.815-3.882 4.528h-7.896l-4.069-4.069-1.415 1.414 4.656 4.655h9.644l5.686-6.634-8.538-8.537z">
      </path>
      <path d="M16 0v14.414l4.414-4.414h11.586v-10h-16zM30 8h-10.414l-1.586 1.586v-7.586h12v6z"></path>
      <path d="M21 4h2v2h-2v-2z"></path>
      <path d="M25 4h2v2h-2v-2z"></path>
    </symbol>
    <symbol id="icon-phone" viewBox="0 0 32 32">
      <path
        d="M26.667 20.667c-1.6 0-3.333-0.267-4.8-0.8-0.133 0-0.267 0-0.4 0-0.4 0-0.667 0.133-0.933 0.4l-2.933 2.933c-3.733-2-6.933-5.067-8.8-8.8l2.933-2.933c0.4-0.4 0.533-0.933 0.267-1.333-0.4-1.467-0.667-3.2-0.667-4.8 0-0.667-0.667-1.333-1.333-1.333h-4.667c-0.667 0-1.333 0.667-1.333 1.333 0 12.533 10.133 22.667 22.667 22.667 0.667 0 1.333-0.667 1.333-1.333v-4.667c0-0.667-0.667-1.333-1.333-1.333zM6.667 6.667h2c0.133 1.2 0.4 2.4 0.667 3.467l-1.6 1.6c-0.533-1.6-0.933-3.333-1.067-5.067zM25.333 25.333c-1.733-0.133-3.467-0.533-5.067-1.067l1.6-1.6c1.067 0.267 2.267 0.533 3.467 0.533v2.133z">
      </path>
    </symbol>
    <symbol id="icon-pin" viewBox="0 0 32 32">
      <path
        d="M16 0c-6.617 0-12 5.383-12 12 0 8.853 11.072 19.375 11.543 19.819 0.129 0.12 0.293 0.181 0.457 0.181s0.328-0.061 0.457-0.181c0.471-0.444 11.543-10.966 11.543-19.819 0-6.617-5.383-12-12-12zM16 18.667c-3.676 0-6.667-2.991-6.667-6.667s2.991-6.667 6.667-6.667 6.667 2.991 6.667 6.667-2.991 6.667-6.667 6.667z">
      </path>
    </symbol>
    <symbol id="icon-skype1" viewBox="0 0 32 32">
      <path
        d="M30.721 19.12c0.492-2.334 0.424-4.769-0.2-7.072-0.683-2.519-2.025-4.832-3.881-6.688s-4.169-3.198-6.688-3.881c-2.303-0.624-4.738-0.692-7.072-0.2-1.528-0.956-3.34-1.399-5.151-1.251-1.984 0.162-3.854 1.027-5.263 2.437s-2.275 3.279-2.437 5.263c-0.148 1.811 0.295 3.623 1.251 5.151-0.492 2.334-0.424 4.769 0.2 7.072 0.683 2.519 2.025 4.832 3.881 6.688s4.169 3.198 6.688 3.881c2.303 0.624 4.738 0.692 7.072 0.2 1.335 0.836 2.888 1.279 4.467 1.279 0.228 0 0.456-0.009 0.685-0.028 1.985-0.162 3.854-1.027 5.264-2.437s2.275-3.279 2.437-5.264c0.148-1.811-0.295-3.623-1.251-5.151zM28.144 28.144c-2.223 2.223-5.699 2.526-8.265 0.72-0.167-0.118-0.365-0.179-0.566-0.179-0.077 0-0.155 0.009-0.231 0.027-4.473 1.080-9.082-0.215-12.331-3.464s-4.544-7.859-3.464-12.331c0.066-0.275 0.011-0.565-0.152-0.797-1.805-2.566-1.502-6.042 0.72-8.264s5.698-2.526 8.264-0.72c0.231 0.163 0.522 0.218 0.797 0.152 4.473-1.080 9.082 0.215 12.331 3.464s4.544 7.859 3.464 12.331c-0.066 0.275-0.011 0.565 0.152 0.797 1.805 2.566 1.503 6.042-0.72 8.265z">
      </path>
      <path
        d="M16.184 14.924c-2.031-0.687-4.334-1.466-4.334-2.618 0-1.469 1.9-2.71 4.15-2.71s4.15 1.241 4.15 2.71c0 0.543 0.44 0.984 0.984 0.984s0.984-0.44 0.984-0.984c0-1.312-0.679-2.523-1.913-3.41-1.136-0.817-2.629-1.267-4.204-1.267s-3.069 0.45-4.204 1.267c-1.233 0.887-1.913 2.099-1.913 3.41 0 1.196 0.687 2.205 2.041 3 1.022 0.6 2.348 1.048 3.629 1.481 2.26 0.764 4.596 1.555 4.596 2.906 0 1.469-1.9 2.71-4.15 2.71s-4.15-1.241-4.15-2.71c0-0.543-0.44-0.984-0.984-0.984s-0.984 0.44-0.984 0.984c0 1.312 0.679 2.523 1.913 3.41 1.136 0.817 2.629 1.267 4.204 1.267s3.069-0.45 4.204-1.267c1.233-0.887 1.913-2.099 1.913-3.41 0-2.763-3.152-3.829-5.933-4.77z">
      </path>
    </symbol>
    <symbol id="icon-skype" viewBox="0 0 32 32">
      <path fill="#00aff0" style="fill: var(--color4, #00aff0)"
        d="M31.078 19.393c0.231-1.043 0.351-2.119 0.351-3.229 0-8.313-6.83-15.045-15.253-15.045-0.889 0-1.757 0.077-2.614 0.22-1.362-0.846-2.976-1.34-4.711-1.34-4.887 0-8.851 3.909-8.851 8.73 0 1.614 0.439 3.119 1.219 4.415-0.198 0.977-0.307 1.988-0.307 3.020 0 8.313 6.83 14.803 15.253 14.803 0.955 0 1.889-0.088 2.789-0.253 1.252 0.659 2.669 1.285 4.184 1.285 4.887 0 8.851-3.909 8.851-8.73 0-1.395-0.329-2.712-0.911-3.876zM23.127 22.303c-0.593 0.835-1.45 1.493-2.581 1.966s-2.482 0.714-4.030 0.714c-1.867 0-3.404-0.318-4.612-0.977-0.857-0.461-1.559-1.087-2.097-1.867s-0.802-1.537-0.802-2.273c0-0.428 0.165-0.791 0.483-1.098s0.736-0.461 1.23-0.461c0.406 0 0.747 0.121 1.021 0.351 0.275 0.242 0.516 0.593 0.714 1.054 0.242 0.549 0.505 1.021 0.78 1.384 0.275 0.373 0.67 0.681 1.175 0.922s1.175 0.362 1.999 0.362c1.131 0 2.054-0.242 2.767-0.725 0.703-0.483 1.065-1.098 1.065-1.823 0-0.582-0.198-1.043-0.571-1.406-0.384-0.362-0.879-0.637-1.482-0.824s-1.417-0.395-2.427-0.604c-1.362-0.286-2.493-0.637-3.404-1.021-0.911-0.395-1.647-0.922-2.174-1.603-0.538-0.681-0.802-1.515-0.802-2.526 0-0.955 0.286-1.812 0.846-2.548 0.571-0.747 1.384-1.318 2.46-1.713s2.339-0.604 3.789-0.604c1.164 0 2.163 0.132 3.009 0.395s1.548 0.615 2.108 1.054c0.56 0.439 0.966 0.9 1.23 1.384 0.253 0.483 0.384 0.955 0.384 1.406 0 0.417-0.165 0.802-0.483 1.131-0.318 0.34-0.725 0.505-1.208 0.505-0.439 0-0.769-0.099-0.999-0.307-0.231-0.198-0.472-0.527-0.736-0.988-0.34-0.659-0.758-1.164-1.241-1.537s-1.252-0.549-2.317-0.549c-0.988 0-1.79 0.198-2.394 0.604-0.604 0.395-0.911 0.879-0.911 1.439 0 0.34 0.099 0.648 0.307 0.9s0.483 0.472 0.857 0.648c0.362 0.187 0.725 0.329 1.098 0.428 0.362 0.099 0.977 0.253 1.834 0.45 1.065 0.231 2.032 0.483 2.888 0.758 0.868 0.275 1.603 0.615 2.207 1.010s1.076 0.9 1.417 1.504c0.34 0.604 0.516 1.351 0.516 2.218-0.033 1.087-0.318 2.032-0.911 2.866z">
      </path>
    </symbol>
    <symbol id="icon-whatsapp1" viewBox="0 0 32 32">
      <path
        d="M24.009 19.265l-1.696-1.696c-0.463-0.463-1.102-0.695-1.753-0.636s-1.239 0.4-1.612 0.938l-0.591 0.851c-0.803-0.143-2.358-0.548-3.444-1.635s-1.492-2.642-1.635-3.444l0.851-0.591c0.537-0.373 0.879-0.961 0.938-1.612s-0.173-1.291-0.636-1.753l-1.696-1.696c-0.681-0.681-1.709-0.844-2.556-0.405-1.486 0.77-2.462 2.213-2.749 4.064-0.467 3.015 0.927 6.572 3.637 9.283 2.364 2.364 5.372 3.727 8.102 3.727 0.4 0 0.795-0.029 1.18-0.089 1.851-0.287 3.294-1.263 4.064-2.749 0 0 0 0 0 0 0.439-0.848 0.276-1.875-0.405-2.556zM22.688 20.927c-0.612 1.181-1.771 1.588-2.636 1.722-2.377 0.368-5.365-0.845-7.611-3.091s-3.459-5.233-3.091-7.611c0.134-0.865 0.541-2.024 1.722-2.636 0.032-0.017 0.067-0.025 0.103-0.025 0.066 0 0.134 0.027 0.185 0.078l1.696 1.696c0.070 0.071 0.079 0.151 0.075 0.206s-0.028 0.132-0.11 0.189l-1.34 0.93c-0.28 0.194-0.438 0.521-0.416 0.862 0.008 0.129 0.229 3.171 2.272 5.214s5.086 2.264 5.214 2.272c0.34 0.022 0.667-0.136 0.862-0.416l0.93-1.34c0.057-0.082 0.134-0.105 0.189-0.11s0.135 0.004 0.206 0.075l1.696 1.696c0.079 0.079 0.101 0.197 0.054 0.288z">
      </path>
      <path
        d="M27.314 4.686c-3.022-3.022-7.040-4.686-11.314-4.686s-8.292 1.664-11.314 4.686c-2.569 2.569-4.199 5.968-4.592 9.572-0.371 3.407 0.369 6.875 2.087 9.815l-1.667 6.223c-0.090 0.335 0.006 0.693 0.252 0.939s0.603 0.341 0.939 0.252l6.223-1.667c2.444 1.428 5.253 2.181 8.089 2.181 0.575 0 1.151-0.031 1.726-0.094 3.604-0.392 7.004-2.023 9.572-4.592 3.022-3.022 4.686-7.040 4.686-11.314s-1.664-8.292-4.686-11.314zM25.939 25.941c-4.646 4.646-11.781 5.471-17.352 2.008-0.155-0.097-0.333-0.146-0.513-0.146-0.084 0-0.169 0.011-0.251 0.033l-4.996 1.339 1.339-4.996c0.069-0.26 0.028-0.536-0.113-0.764-3.464-5.571-2.638-12.707 2.008-17.352 5.481-5.481 14.399-5.481 19.88 0s5.481 14.399 0 19.88z">
      </path>
    </symbol>
    <symbol id="icon-whatsapp" viewBox="0 0 32 32">
      <path fill="#4caf50" style="fill: var(--color5, #4caf50)"
        d="M24.461 2.424c-2.542-1.58-5.478-2.417-8.47-2.417-8.832 0.006-15.991 7.165-15.984 15.997 0 3.061 0.881 6.053 2.53 8.626l-2.492 6.452c-0.131 0.344 0.037 0.731 0.381 0.862 0.075 0.031 0.156 0.044 0.237 0.044 0.075 0 0.15-0.012 0.225-0.037l6.665-2.38c7.496 4.666 17.359 2.374 22.025-5.122s2.38-17.352-5.116-22.025zM23.986 20.663c-0.337 1.943-2.030 3.354-3.998 3.329-2.093 0-6.115-2.505-7.802-4.191-1.687-1.693-4.191-5.709-4.191-7.802-0.019-1.968 1.393-3.66 3.329-3.998h1.33c0.25 0 0.481 0.144 0.593 0.369 0 0 0.806 1.63 1.33 2.655 0.593 1.156-0.518 2.517-1.156 3.154 0.381 0.993 0.962 1.905 1.699 2.673 0.768 0.737 1.68 1.318 2.673 1.699 0.637-0.637 1.999-1.749 3.154-1.156 1.024 0.531 2.655 1.33 2.655 1.33 0.231 0.112 0.375 0.344 0.375 0.6v1.337h0.006z">
      </path>
    </symbol>
    <symbol id="icon-ru" viewBox="0 0 32 32">
      <path fill="#f0f0f0" style="fill: var(--color6, #f0f0f0)" d="M0 5.333v21.333h32v-21.333z"></path>
      <path fill="#0052b4" style="fill: var(--color7, #0052b4)" d="M0 5.333h32v21.334h-32v-21.334z"></path>
      <path fill="#f0f0f0" style="fill: var(--color6, #f0f0f0)" d="M0 5.333h32v7.111h-32v-7.111z"></path>
      <path fill="#d80027" style="fill: var(--color8, #d80027)" d="M0 19.555h32v7.111h-32v-7.111z"></path>
    </symbol>
    <symbol id="icon-ua" viewBox="0 0 48 32">
      <path fill="#005bbb" style="fill: var(--color1, #005bbb)" d="M0 0h48v32h-48v-32z"></path>
      <path fill="#ffd500" style="fill: var(--color2, #ffd500)" d="M0 16h48v16h-48v-16z"></path>
    </symbol>
    <symbol id="icon-close" viewBox="0 0 32 32">
      <title>close</title>
      <path
        d="M18.329 16.022l13.152-13.080c0.631-0.624 0.631-1.635 0-2.257-0.629-0.624-1.65-0.624-2.279 0l-13.14 13.069-13.262-13.263c-0.629-0.631-1.65-0.631-2.279 0-0.629 0.632-0.629 1.655 0 2.286l13.252 13.254-13.3 13.227c-0.629 0.624-0.629 1.635 0 2.257 0.629 0.624 1.65 0.624 2.279 0l13.289-13.215 13.209 13.211c0.629 0.631 1.65 0.631 2.279 0 0.629-0.632 0.629-1.655 0-2.286l-13.199-13.201z">
      </path>
    </symbol>
    <!-- <symbol id="icon-drop_down" viewBox="0 0 2 1">
      <title>drop_down</title>
      <polygon  points="0,0 2,0 1,1"/>
  </symbol> -->
  
  </defs>

  <g id="icon-arrow1" viewBox="0 0 32 32">
    <path fill="#ff7129" d="M31.333 14.667h-27.057l6.862-6.862c0.125-0.125 0.195-0.294 0.195-0.471v-1.333c0-0.27-0.162-0.513-0.411-0.616-0.083-0.035-0.169-0.051-0.255-0.051-0.173 0-0.344 0.068-0.471 0.195l-10 10c-0.26 0.26-0.26 0.682 0 0.943l10 10c0.191 0.19 0.476 0.248 0.727 0.145 0.249-0.103 0.411-0.346 0.411-0.616v-1.333c0-0.177-0.070-0.346-0.195-0.471l-6.862-6.862h27.057c0.369 0 0.667-0.298 0.667-0.667v-1.333c-0-0.368-0.298-0.667-0.667-0.667z"></path>
  </g>
  <g id="icon-check" viewBox="0 0 32 32">
    <path fill="#6D71F9" d="M12 21.56l-5.56-5.56-1.893 1.88 7.453 7.453 16-16-1.88-1.88z"></path>
  </g>

</svg>