<?xml version="1.0" standalone="no"?>
<!DOCTYPE svg PUBLIC "-//W3C//DTD SVG 20010904//EN"
 "http://www.w3.org/TR/2001/REC-SVG-20010904/DTD/svg10.dtd">
<svg version="1.0" xmlns="http://www.w3.org/2000/svg"
 width="180.000000pt" height="180.000000pt" viewBox="0 0 180.000000 180.000000"
 preserveAspectRatio="xMidYMid meet">
<metadata>
Created by potrace 1.14, written by Peter Selinger 2001-2017
</metadata>
<g transform="translate(0.000000,180.000000) scale(0.100000,-0.100000)"
fill="#000000" stroke="none">
<path d="M813 1709 c-90 -9 -197 -41 -283 -84 -69 -35 -180 -113 -180 -127 0
-4 125 -8 278 -8 l278 0 44 -45 44 -45 -425 -2 -424 -3 -47 -95 c-71 -142 -92
-236 -92 -400 0 -164 21 -258 92 -400 l47 -95 53 -3 c48 -3 56 -7 99 -53 156
-167 372 -260 603 -260 137 0 235 22 355 80 80 38 195 117 195 133 0 4 -125 8
-278 8 l-278 0 -44 45 -44 45 425 2 424 3 47 95 c71 142 92 236 92 400 0 164
-21 258 -92 400 l-47 95 -53 3 c-48 3 -56 7 -99 53 -174 186 -436 284 -690
258z m-383 -754 l0 -186 83 3 82 3 3 183 2 182 25 0 25 0 0 -181 c0 -172 1
-181 20 -186 15 -4 20 -14 20 -39 0 -30 -3 -34 -25 -34 -14 0 -25 5 -25 10 0
6 -52 10 -135 10 l-135 0 0 210 0 210 30 0 30 0 0 -185z m539 174 c21 -6 48
-19 62 -30 l24 -18 -20 -21 -21 -20 -39 21 c-98 50 -212 -15 -222 -128 -10
-124 124 -208 230 -145 34 19 36 19 51 3 24 -26 20 -35 -26 -61 -52 -30 -146
-33 -193 -8 -165 88 -165 318 -1 394 56 26 99 30 155 13z m410 -174 c41 -120
68 -185 77 -185 9 0 14 -12 14 -35 0 -31 -3 -35 -25 -35 -14 0 -25 5 -25 10 0
6 -50 10 -130 10 -80 0 -130 -4 -130 -10 0 -5 -13 -10 -30 -10 -27 0 -30 3
-30 34 0 24 5 36 16 38 11 2 34 55 74 170 31 91 60 173 63 182 4 9 18 16 34
16 27 0 30 -5 92 -185z"/>
<path d="M1241 927 c-24 -73 -46 -138 -48 -144 -4 -10 18 -13 91 -13 53 0 96
4 96 8 0 9 -88 273 -93 278 -1 2 -22 -56 -46 -129z"/>
</g>
</svg>
