<svg xmlns="http://www.w3.org/2000/svg" width="130.35" height="128.21" viewBox="0 0 130.35 128.21"><style>.st0{fill:#fff}</style><path class="st0" d="M27.12 38.43v43.01H6.54V38.43H0V87.5h31.75v2.58h6.21v-8.64H33.6V38.43zM63.49 82.7c-10.25 0-18.6-8.35-18.6-18.6 0-10.25 8.35-18.59 18.6-18.59 4.95 0 9.44 1.96 12.77 5.13l4.91-4.93c-4.58-4.41-10.81-7.14-17.68-7.14-14.1 0-25.53 11.43-25.53 25.53 0 14.1 11.43 25.53 25.53 25.53 6.89 0 13.13-2.74 17.72-7.17l-4.91-4.93c-3.34 3.19-7.84 5.17-12.81 5.17"/><path class="st0" d="M62.91 64.1l-.04-.03-.03.03zm-.04-.03l.04-.04h-.07zm57.53 17.37l-11.75-34.81-11.76 34.81zm-15.06-43.01h6.54l14.79 43.01h3.68v8.64h-6.34V87.5H93.28v2.58h-6.34v-8.64h3.61z"/><path d="M19.77 26.5A57.627 57.627 0 0163.49 6.44c14.31 0 27.99 5.3 38.51 14.74H63.49l-6.42 6.44h59.6l-4.58-5.32A64.074 64.074 0 0063.49 0C44.8 0 27.09 8.13 14.88 22.3l-4.58 5.28h8.52z" fill="#8dc124"/><path d="M107.21 101.7c-10.98 12.75-26.91 20.07-43.72 20.07a57.59 57.59 0 01-38.51-14.75h38.51l6.42-6.44H10.3l4.58 5.32c12.21 14.18 29.92 22.31 48.61 22.31 18.69 0 36.4-8.13 48.6-22.31l4.58-5.28h-8.51z" fill="#008937"/></svg>