<svg xmlns="http://www.w3.org/2000/svg" width="383.83" height="129.09" viewBox="0 0 383.83 129.09"><style>.st0{fill:#fff}</style><path class="st0" d="M203.17 28.74V4.69h3.63v24.05h2.44v8.88h-3.47v-5.49h-17.76V4.69h3.65v24.05zm22.64-.04v3.47h-14.1V4.73h14.1V8h-10.44v8.77h10.44v3.2h-10.44v8.73zm8.24-8.65v12.12h-3.62V4.73h3.62v11.85h11.73V4.73h3.62v27.44h-3.62V20.05zm27.4-11.97v24.09h-3.62V8.08h-5.53V4.73h14.71v3.35zm12-.08v9.68h3.13c4.11 0 6.17-1.58 6.17-4.76 0-3.28-2-4.92-6.02-4.92zm0 12.96v11.21h-3.58V4.73h7.4c2.69 0 4.85.63 6.47 1.9 1.76 1.4 2.63 3.42 2.63 6.06 0 2.69-.92 4.78-2.78 6.25-1.7 1.35-3.94 2.02-6.71 2.02zm-65.13 50.39h4.57c-2.31 4.72-6.36 7.08-12.15 7.08-3.94 0-7.25-1.41-9.93-4.23-2.68-2.82-4.02-6.21-4.02-10.17 0-3.84 1.38-7.15 4.13-9.93 2.76-2.78 6.06-4.17 9.89-4.17 2.72 0 5.12.61 7.21 1.83 2.18 1.27 3.81 3.11 4.87 5.52h-4.34c-1.86-2.49-4.46-3.73-7.81-3.73-2.75 0-5.12 1.05-7.13 3.16-2.01 2.11-3.01 4.55-3.01 7.32 0 2.87.96 5.37 2.9 7.51 1.98 2.21 4.39 3.31 7.24 3.31 3.35 0 5.88-1.17 7.58-3.5M220.17 54v23.9h-3.62V50.46h18.75V77.9h-3.62V54zm37.16 2.56L243.5 77.9h-3.36V50.46h3.66v21.29l13.81-21.29h3.38V77.9h-3.66zm28.81 14.79h4.58c-2.31 4.72-6.37 7.08-12.16 7.08-3.94 0-7.25-1.41-9.93-4.23-2.68-2.82-4.02-6.21-4.02-10.17 0-3.84 1.38-7.15 4.14-9.93 2.75-2.78 6.05-4.17 9.89-4.17 2.72 0 5.12.61 7.2 1.83 2.18 1.27 3.81 3.11 4.88 5.52h-4.35c-1.85-2.49-4.46-3.73-7.81-3.73-2.74 0-5.12 1.05-7.13 3.16-2 2.11-3.01 4.55-3.01 7.32 0 2.87.97 5.37 2.9 7.51 1.98 2.21 4.39 3.31 7.24 3.31 3.35 0 5.88-1.17 7.58-3.5m17.12-16.37l-4.4 11.45h8.72zm8.6 22.92l-3.02-8.04h-11.2l-3.03 8.04h-3.93l10.75-27.44h3.62L315.8 77.9zm9.16-12.12V77.9h-3.62V50.46h3.62v11.85h11.74V50.46h3.62V77.9h-3.62V65.78zm37.39-9.22L344.57 77.9h-3.35V50.46h3.66v21.29l13.8-21.29h3.38V77.9h-3.65zm21.64 8.08v.11h-.07zm.15-10.83h-3.23c-2.24 0-3.92.33-5.04 1-1.44.86-2.17 2.32-2.17 4.38 0 3.81 2.44 5.72 7.32 5.72h2.59l-8.99 12.99h-4.5l7.74-10.71c-2.24 0-4.09-.76-5.57-2.28-1.47-1.53-2.21-3.41-2.21-5.65 0-2.89.94-5.12 2.82-6.67 1.73-1.42 4.08-2.13 7.05-2.13h7.82V77.9h-3.63zm-175.77 66.4l-6.57-19.47-6.57 19.47zm-8.42-24.05h3.66l8.27 24.05H210v8.88h-3.55v-5.49h-17.19v5.49h-3.54v-8.88h2.02zm38.72 13.53c0-2.77-1.01-5.2-3.03-7.28-2.02-2.08-4.41-3.13-7.18-3.13-2.77 0-5.17 1.06-7.2 3.17-2.04 2.11-3.05 4.55-3.05 7.31 0 2.88.99 5.4 2.97 7.57 1.98 2.17 4.41 3.26 7.28 3.26 3 0 5.46-1.08 7.39-3.24 1.88-2.09 2.82-4.64 2.82-7.66m3.85.07c0 3.99-1.35 7.4-4.04 10.22-2.69 2.82-6.03 4.23-10.02 4.23-3.94 0-7.27-1.42-10.01-4.27-2.73-2.85-4.09-6.24-4.09-10.18 0-3.86 1.39-7.17 4.19-9.94 2.79-2.77 6.12-4.16 9.98-4.16 3.89 0 7.2 1.38 9.91 4.14 2.72 2.75 4.08 6.08 4.08 9.96m11.61-9.05l-7.87 22.93h-3.93l9.95-27.44h3.62l9.95 27.44h-3.85zm17.09-1.12v24.05h-3.66V96.2h14.1v3.39zm33.62 10.1c0-2.77-1.01-5.2-3.03-7.28-2.02-2.08-4.42-3.13-7.19-3.13-2.77 0-5.17 1.06-7.2 3.17-2.03 2.11-3.05 4.55-3.05 7.31 0 2.88.99 5.4 2.97 7.57 1.98 2.17 4.41 3.26 7.28 3.26 3 0 5.46-1.08 7.4-3.24 1.88-2.09 2.82-4.64 2.82-7.66m3.85.07c0 3.99-1.35 7.4-4.04 10.22-2.7 2.82-6.04 4.23-10.03 4.23-3.94 0-7.27-1.42-10-4.27-2.73-2.85-4.1-6.24-4.1-10.18 0-3.86 1.4-7.17 4.19-9.94 2.8-2.77 6.13-4.16 9.99-4.16 3.89 0 7.19 1.38 9.91 4.14 2.72 2.75 4.08 6.08 4.08 9.96m7.16 1.03v9.46h3.35c3.76 0 5.64-1.49 5.64-4.46 0-3.33-1.88-5-5.64-5zm0-11.2v8.31h1.52c3.94 0 5.91-1.44 5.91-4.31 0-2.67-1.68-4-5.03-4zm-3.58 24.05V96.2h5.79c5.92 0 8.88 2.49 8.88 7.47 0 2.26-1.09 4.01-3.28 5.26 3.25.96 4.88 3.1 4.88 6.4 0 5.54-3.34 8.31-10.02 8.31zM27.12 81.44V38.43h6.48v43.01h4.36v8.64h-6.2V87.5H0V38.43h6.54v43.01zm36.37 1.26c-10.25 0-18.6-8.35-18.6-18.6 0-10.25 8.35-18.59 18.6-18.59 4.95 0 9.44 1.96 12.77 5.13l4.91-4.93c-4.58-4.41-10.81-7.14-17.68-7.14-14.1 0-25.53 11.43-25.53 25.53 0 14.1 11.43 25.53 25.53 25.53 6.89 0 13.13-2.74 17.72-7.17l-4.91-4.93c-3.34 3.19-7.84 5.17-12.81 5.17"/><path class="st0" d="M62.91 64.1l-.04-.03-.03.03zm-.04-.03l.04-.04h-.07zm57.53 17.37l-11.75-34.81-11.76 34.81zm-15.06-43.01h6.54l14.79 43.01h3.68v8.64h-6.34V87.5H93.28v2.58h-6.34v-8.64h3.61z"/><path d="M19.77 26.5A57.627 57.627 0 0163.49 6.44c14.31 0 27.99 5.3 38.51 14.74H63.49l-6.42 6.44h59.6l-4.58-5.32A64.04 64.04 0 0063.49 0C44.8 0 27.09 8.12 14.88 22.3l-4.58 5.28h8.52z" fill="#8dc124"/><path d="M107.21 101.7c-10.98 12.75-26.91 20.07-43.72 20.07a57.59 57.59 0 01-38.51-14.75h38.51l6.42-6.44H10.3l4.58 5.32c12.21 14.18 29.92 22.31 48.61 22.31 18.69 0 36.4-8.13 48.6-22.31l4.58-5.28h-8.51z" fill="#008937"/></svg>