<svg xmlns="http://www.w3.org/2000/svg" width="130.35" height="128.21" viewBox="0 0 130.35 128.21">
	<style type="text/css">
		.st2{fill:#008937;}
		.st1{fill:#8dc124;}
		.st0{fill:#ffffff;}
	</style>
	<path class="st0" d="M27.12,38.43L27.12,81.44L6.54,81.44L6.54,38.43L0,38.43L0,87.5L31.75,87.5L31.75,90.08L37.96,90.08L37.96,81.44L33.6,81.44L33.6,38.43Z"/>
	<path class="st0" d="M63.49,82.7C53.24,82.7 44.89,74.35 44.89,64.1C44.89,53.85 53.24,45.51 63.49,45.51C68.44,45.51 72.93,47.47 76.26,50.64L81.17,45.71C76.59,41.3 70.36,38.57 63.49,38.57C49.39,38.57 37.96,50 37.96,64.1C37.96,78.2 49.39,89.63 63.49,89.63C70.38,89.63 76.62,86.89 81.21,82.46L76.3,77.53C72.96,80.72 68.46,82.7 63.49,82.7"/>
	<path class="st0" d="M62.91,64.1L62.87,64.07L62.84,64.1Z"/>
	<path class="st0" d="M62.87,64.07L62.91,64.03L62.84,64.03Z"/>
	<path class="st0" d="M120.4,81.44L108.65,46.63L96.89,81.44ZM105.34,38.43L111.88,38.43L126.67,81.44L130.35,81.44L130.35,90.08L124.01,90.08L124.01,87.5L93.28,87.5L93.28,90.08L86.94,90.08L86.94,81.44L90.55,81.44Z"/>
	<path class="st1" d="M19.77,26.5C30.74,13.75 46.68,6.44 63.49,6.44C77.8,6.44 91.48,11.74 102,21.18L63.49,21.18L57.07,27.62L116.67,27.62L112.09,22.3C99.89,8.13 82.18,0 63.49,0C44.8,0 27.09,8.13 14.88,22.3L10.3,27.58L18.82,27.58Z"/>
	<path class="st2" d="M107.21,101.7C96.23,114.45 80.3,121.77 63.49,121.77C49.18,121.77 35.5,116.47 24.98,107.02L63.49,107.02L69.91,100.58L10.3,100.58L14.88,105.9C27.09,120.08 44.8,128.21 63.49,128.21C82.18,128.21 99.89,120.08 112.09,105.9L116.67,100.62L108.16,100.62Z"/>
</svg>